<svg width="120" height="120" viewBox="0 0 120 120" xmlns="http://www.w3.org/2000/svg">
  <g fill="#F2B53C" fill-opacity="0.10">
    <!-- centre buti -->
    <path d="M60 48 L66 60 L60 72 L54 60 Z"/>
    <path d="M48 60 L60 54 L72 60 L60 66 Z"/>
    <circle cx="60" cy="60" r="3"/>
    <circle cx="71" cy="49" r="2"/>
    <circle cx="49" cy="49" r="2"/>
    <circle cx="71" cy="71" r="2"/>
    <circle cx="49" cy="71" r="2"/>
    <!-- corner florets (complete when tiled) -->
    <path d="M0 -6 L6 0 L0 6 L-6 0 Z"/>
    <path d="M120 -6 L126 0 L120 6 L114 0 Z"/>
    <path d="M0 114 L6 120 L0 126 L-6 120 Z"/>
    <path d="M120 114 L126 120 L120 126 L114 120 Z"/>
  </g>
  <g fill="none" stroke="#F2B53C" stroke-opacity="0.06" stroke-width="1">
    <circle cx="60" cy="60" r="22"/>
  </g>
</svg>
