<svg width="600" height="800" viewBox="0 0 600 800" xmlns="http://www.w3.org/2000/svg">
  <defs>
    <linearGradient id="bg" x1="0" y1="0" x2="0" y2="1">
      <stop offset="0" stop-color="#F6E7EA"/>
      <stop offset="1" stop-color="#FBF6EE"/>
    </linearGradient>
    <radialGradient id="spot" cx="0.5" cy="0.26" r="0.62">
      <stop offset="0" stop-color="#ffffff" stop-opacity="0.55"/>
      <stop offset="1" stop-color="#ffffff" stop-opacity="0"/>
    </radialGradient>
    <linearGradient id="cloth" x1="0.1" y1="0" x2="0.9" y2="1">
      <stop offset="0" stop-color="#E7AEB8"/>
      <stop offset="1" stop-color="#CE7C8C"/>
    </linearGradient>
  </defs>
  <rect width="600" height="800" fill="url(#bg)"/>
  <rect width="600" height="800" fill="url(#spot)"/>
  <ellipse cx="300" cy="700" rx="138" ry="24" fill="#211C16" opacity="0.10"/>
  <path d="M236,232 L258,176 L300,250 L342,176 L364,232 C360,280 356,300 360,330 L398,452 C384,560 372,612 360,668 L240,668 C228,612 216,560 202,452 L240,330 C244,300 240,280 236,232 Z" fill="url(#cloth)"/>
  <path d="M258,176 L300,250 L342,176 L330,210 L300,266 L270,210 Z" fill="#CE7C8C" opacity="0.55"/>
  <path d="M300,250 L386,402 L300,372 L214,402 Z" fill="#ffffff" opacity="0.14"/>
  <path d="M214,402 C260,392 340,392 386,402" fill="none" stroke="#B86C7B" stroke-width="7" stroke-linecap="round"/>
  <circle cx="300" cy="404" r="9" fill="#B86C7B"/>
</svg>
