<svg width="600" height="800" viewBox="0 0 600 800" xmlns="http://www.w3.org/2000/svg">
  <defs>
    <linearGradient id="bg" x1="0" y1="0" x2="0" y2="1">
      <stop offset="0" stop-color="#F0E2E4"/>
      <stop offset="1" stop-color="#FBF6EE"/>
    </linearGradient>
    <radialGradient id="spot" cx="0.5" cy="0.28" r="0.6">
      <stop offset="0" stop-color="#ffffff" stop-opacity="0.5"/>
      <stop offset="1" stop-color="#ffffff" stop-opacity="0"/>
    </radialGradient>
    <linearGradient id="cloth" x1="0.1" y1="0" x2="0.9" y2="1">
      <stop offset="0" stop-color="#8E3346"/>
      <stop offset="1" stop-color="#5C1E2B"/>
    </linearGradient>
  </defs>
  <rect width="600" height="800" fill="url(#bg)"/>
  <rect width="600" height="800" fill="url(#spot)"/>
  <ellipse cx="300" cy="556" rx="160" ry="26" fill="#211C16" opacity="0.10"/>
  <!-- chain -->
  <path d="M196,360 C220,200 380,200 404,360" fill="none" stroke="#C9A24B" stroke-width="5" stroke-dasharray="3 9" stroke-linecap="round"/>
  <!-- body -->
  <rect x="186" y="350" width="228" height="190" rx="22" fill="url(#cloth)"/>
  <!-- flap -->
  <path d="M186,372 C186,358 196,350 210,350 L390,350 C404,350 414,358 414,372 L414,430 C360,452 240,452 186,430 Z" fill="#7A2B3C"/>
  <path d="M186,372 C186,358 196,350 210,350 L300,350 L300,440 C250,440 210,436 186,430 Z" fill="#ffffff" opacity="0.08"/>
  <!-- clasp -->
  <circle cx="300" cy="430" r="13" fill="#C9A24B"/>
  <circle cx="300" cy="430" r="6" fill="#8E3346"/>
</svg>
