<svg width="600" height="800" viewBox="0 0 600 800" xmlns="http://www.w3.org/2000/svg">
  <defs>
    <linearGradient id="bg" x1="0" y1="0" x2="0" y2="1">
      <stop offset="0" stop-color="#F1E7D8"/>
      <stop offset="1" stop-color="#FBF6EE"/>
    </linearGradient>
    <radialGradient id="spot" cx="0.5" cy="0.26" r="0.62">
      <stop offset="0" stop-color="#ffffff" stop-opacity="0.55"/>
      <stop offset="1" stop-color="#ffffff" stop-opacity="0"/>
    </radialGradient>
    <linearGradient id="cloth" x1="0.1" y1="0" x2="0.9" y2="1">
      <stop offset="0" stop-color="#D6B488"/>
      <stop offset="1" stop-color="#B68A5C"/>
    </linearGradient>
  </defs>
  <rect width="600" height="800" fill="url(#bg)"/>
  <rect width="600" height="800" fill="url(#spot)"/>
  <ellipse cx="300" cy="660" rx="150" ry="24" fill="#211C16" opacity="0.10"/>
  <!-- left panel -->
  <path d="M300,210 L300,628 L196,628 L176,300 C172,250 196,224 236,212 Z" fill="url(#cloth)"/>
  <!-- right panel -->
  <path d="M300,210 L364,212 C404,224 428,250 424,300 L404,628 L300,628 Z" fill="url(#cloth)"/>
  <!-- sleeves -->
  <path d="M176,300 L150,470 L196,470 L210,300 Z" fill="#B68A5C"/>
  <path d="M424,300 L450,470 L404,470 L390,300 Z" fill="#B68A5C"/>
  <!-- lapels -->
  <path d="M300,210 L236,212 L300,360 Z" fill="#C6A172"/>
  <path d="M300,210 L364,212 L300,360 Z" fill="#C6A172"/>
  <path d="M300,210 L236,212 L300,360 Z" fill="#ffffff" opacity="0.10"/>
  <!-- buttons -->
  <circle cx="300" cy="392" r="7" fill="#7E5E36"/>
  <circle cx="300" cy="440" r="7" fill="#7E5E36"/>
</svg>
