<svg width="600" height="800" viewBox="0 0 600 800" xmlns="http://www.w3.org/2000/svg">
  <defs>
    <radialGradient id="bg" cx="0.5" cy="0.42" r="0.82">
      <stop offset="0" stop-color="#5A1542"/>
      <stop offset="1" stop-color="#240A1C"/>
    </radialGradient>
    <radialGradient id="halo" cx="0.5" cy="0.4" r="0.5">
      <stop offset="0" stop-color="#FFE7BE" stop-opacity="0.4"/>
      <stop offset="1" stop-color="#FFE7BE" stop-opacity="0"/>
    </radialGradient>
    <linearGradient id="cloth" x1="0.15" y1="0" x2="0.85" y2="1">
      <stop offset="0" stop-color="#F3F4EE"/>
      <stop offset="1" stop-color="#D9DDD0"/>
    </linearGradient>
  </defs>
  <rect width="600" height="800" fill="url(#bg)"/>
  <g fill="none" stroke="#F2B53C" stroke-opacity="0.16">
    <circle cx="300" cy="330" r="216"/>
    <circle cx="300" cy="330" r="176"/>
  </g>
  <rect width="600" height="800" fill="url(#halo)"/>
  <ellipse cx="300" cy="702" rx="150" ry="22" fill="#000000" opacity="0.28"/>

  <path d="M250,206 L350,206 L352,252 L248,252 Z" fill="#D7DAC9"/>
  <path d="M286,206 Q300,228 314,206 Z" fill="#C7CBBA"/>
  <path d="M250,212 Q300,202 350,212 L356,330 L418,694 Q300,720 182,694 L244,330 Z" fill="url(#cloth)"/>
  <g stroke="#C6CABA" stroke-width="3" opacity="0.55" fill="none" stroke-linecap="round">
    <path d="M300,342 L264,690"/>
    <path d="M300,342 L284,692"/>
    <path d="M300,342 L308,692"/>
    <path d="M300,342 L332,690"/>
  </g>
  <path d="M356,330 L340,330 L400,692 L418,692 Z" fill="#C9A24B"/>
  <path d="M188,672 Q300,700 412,672 L418,694 Q300,720 182,694 Z" fill="#C9A24B"/>
  <path d="M196,662 Q300,688 404,662" stroke="#FFF1CF" stroke-width="2" fill="none"/>
  <g fill="#C9A24B" opacity="0.8">
    <path d="M336,398l5,5l-5,5l-5,-5z"/><path d="M368,456l5,5l-5,5l-5,-5z"/>
    <path d="M334,512l5,5l-5,5l-5,-5z"/><path d="M366,566l5,5l-5,5l-5,-5z"/>
    <path d="M330,624l5,5l-5,5l-5,-5z"/><path d="M300,560l5,5l-5,5l-5,-5z"/>
    <path d="M300,612l5,5l-5,5l-5,-5z"/><path d="M266,600l5,5l-5,5l-5,-5z"/>
    <path d="M236,556l5,5l-5,5l-5,-5z"/><path d="M270,650l5,5l-5,5l-5,-5z"/>
  </g>
  <path d="M250,212 L322,228 L314,452 Q274,468 234,452 L238,236 Z" fill="url(#cloth)"/>
  <path d="M250,214 L322,230" stroke="#FFF1CF" stroke-width="2" opacity="0.6" fill="none"/>
  <path d="M234,434 Q274,452 314,434 L314,452 Q274,468 234,452 Z" fill="#C9A24B"/>
  <g fill="#C9A24B" opacity="0.85">
    <path d="M274,300l6,6l-6,6l-6,-6z"/>
    <path d="M256,262l5,5l-5,5l-5,-5z"/><path d="M292,262l5,5l-5,5l-5,-5z"/>
    <path d="M254,344l5,5l-5,5l-5,-5z"/><path d="M292,344l5,5l-5,5l-5,-5z"/>
    <path d="M274,388l5,5l-5,5l-5,-5z"/>
  </g>
</svg>
