<svg width="600" height="800" viewBox="0 0 600 800" xmlns="http://www.w3.org/2000/svg">
  <defs>
    <linearGradient id="bg" x1="0" y1="0" x2="0" y2="1">
      <stop offset="0" stop-color="#E8EFEA"/>
      <stop offset="1" stop-color="#FBF6EE"/>
    </linearGradient>
    <radialGradient id="spot" cx="0.5" cy="0.26" r="0.62">
      <stop offset="0" stop-color="#ffffff" stop-opacity="0.55"/>
      <stop offset="1" stop-color="#ffffff" stop-opacity="0"/>
    </radialGradient>
    <linearGradient id="cloth" x1="0.1" y1="0" x2="0.9" y2="1">
      <stop offset="0" stop-color="#3E7A68"/>
      <stop offset="1" stop-color="#234C40"/>
    </linearGradient>
  </defs>
  <rect width="600" height="800" fill="url(#bg)"/>
  <rect width="600" height="800" fill="url(#spot)"/>
  <ellipse cx="300" cy="716" rx="150" ry="26" fill="#211C16" opacity="0.10"/>
  <path d="M250,250 L262,172 L300,234 L338,172 L350,250 C346,300 344,320 348,340 C360,470 392,560 424,686 L176,686 C208,560 240,470 252,340 C256,320 254,300 250,250 Z" fill="url(#cloth)"/>
  <path d="M262,172 L300,234 L290,250 L256,250 Z" fill="#234C40" opacity="0.5"/>
  <path d="M252,342 C244,470 220,560 200,684 L176,686 C208,560 240,470 252,342 Z" fill="#ffffff" opacity="0.10"/>
  <line x1="262" y1="172" x2="282" y2="232" stroke="#234C40" stroke-width="6" stroke-linecap="round"/>
  <line x1="338" y1="172" x2="318" y2="232" stroke="#234C40" stroke-width="6" stroke-linecap="round"/>
</svg>
