<svg width="600" height="800" viewBox="0 0 600 800" xmlns="http://www.w3.org/2000/svg">
  <defs>
    <linearGradient id="bg" x1="0" y1="0" x2="0" y2="1">
      <stop offset="0" stop-color="#E4E7F0"/>
      <stop offset="1" stop-color="#FBF6EE"/>
    </linearGradient>
    <radialGradient id="spot" cx="0.5" cy="0.26" r="0.62">
      <stop offset="0" stop-color="#ffffff" stop-opacity="0.55"/>
      <stop offset="1" stop-color="#ffffff" stop-opacity="0"/>
    </radialGradient>
    <linearGradient id="cloth" x1="0.1" y1="0" x2="0.9" y2="1">
      <stop offset="0" stop-color="#3C4F86"/>
      <stop offset="1" stop-color="#222F57"/>
    </linearGradient>
    <radialGradient id="sheen" cx="0.5" cy="0.3" r="0.7">
      <stop offset="0" stop-color="#C9A24B" stop-opacity="0.35"/>
      <stop offset="1" stop-color="#C9A24B" stop-opacity="0"/>
    </radialGradient>
  </defs>
  <rect width="600" height="800" fill="url(#bg)"/>
  <rect width="600" height="800" fill="url(#spot)"/>
  <ellipse cx="300" cy="700" rx="120" ry="22" fill="#211C16" opacity="0.12"/>
  <path d="M252,212 L262,176 L300,210 L338,176 L348,212 C346,260 344,300 346,340 L358,664 L242,664 L254,340 C256,300 254,260 252,212 Z" fill="url(#cloth)"/>
  <rect x="240" y="200" width="120" height="470" fill="url(#sheen)"/>
  <g fill="#C9A24B" opacity="0.75">
    <circle cx="284" cy="250" r="3"/><circle cx="316" cy="262" r="3"/>
    <circle cx="300" cy="300" r="3"/><circle cx="270" cy="320" r="3"/>
    <circle cx="330" cy="330" r="3"/><circle cx="296" cy="360" r="3"/>
    <circle cx="262" cy="392" r="3"/><circle cx="338" cy="404" r="3"/>
    <circle cx="300" cy="430" r="3"/><circle cx="276" cy="470" r="3"/>
    <circle cx="324" cy="486" r="3"/><circle cx="300" cy="520" r="3"/>
    <circle cx="266" cy="556" r="3"/><circle cx="334" cy="568" r="3"/>
    <circle cx="300" cy="600" r="3"/><circle cx="284" cy="636" r="3"/>
    <circle cx="318" cy="640" r="3"/>
  </g>
</svg>
