<svg width="600" height="800" viewBox="0 0 600 800" xmlns="http://www.w3.org/2000/svg">
  <defs>
    <radialGradient id="bg" cx="0.5" cy="0.42" r="0.82">
      <stop offset="0" stop-color="#8A1450"/>
      <stop offset="1" stop-color="#300820"/>
    </radialGradient>
    <radialGradient id="halo" cx="0.5" cy="0.4" r="0.5">
      <stop offset="0" stop-color="#FFE7BE" stop-opacity="0.4"/>
      <stop offset="1" stop-color="#FFE7BE" stop-opacity="0"/>
    </radialGradient>
    <linearGradient id="cloth" x1="0.15" y1="0" x2="0.85" y2="1">
      <stop offset="0" stop-color="#1AA89E"/>
      <stop offset="1" stop-color="#0C5751"/>
    </linearGradient>
  </defs>
  <rect width="600" height="800" fill="url(#bg)"/>
  <g fill="none" stroke="#F2B53C" stroke-opacity="0.16">
    <circle cx="300" cy="330" r="216"/>
    <circle cx="300" cy="330" r="176"/>
  </g>
  <rect width="600" height="800" fill="url(#halo)"/>
  <ellipse cx="300" cy="724" rx="150" ry="20" fill="#000000" opacity="0.28"/>

  <path d="M288,666 L298,666 L296,712 L290,712 Z" fill="url(#cloth)"/>
  <path d="M302,666 L312,666 L310,712 L304,712 Z" fill="url(#cloth)"/>
  <rect x="288" y="702" width="9" height="6" rx="1.5" fill="#C9A24B"/>
  <rect x="303" y="702" width="9" height="6" rx="1.5" fill="#C9A24B"/>
  <path d="M278,330 L322,330 L430,660 Q300,684 170,660 Z" fill="url(#cloth)"/>
  <path d="M176,640 Q300,664 424,640 L430,660 Q300,684 170,660 Z" fill="#C9A24B" opacity="0.95"/>
  <path d="M184,632 Q300,656 416,632" stroke="#F2D98A" stroke-width="2" fill="none"/>
  <line x1="300" y1="334" x2="300" y2="628" stroke="#C9A24B" stroke-width="2" opacity="0.5"/>
  <g fill="#F2D98A" opacity="0.85">
    <circle cx="262" cy="470" r="3"/><circle cx="338" cy="470" r="3"/>
    <circle cx="238" cy="546" r="3"/><circle cx="362" cy="546" r="3"/>
    <circle cx="300" cy="500" r="3"/><circle cx="300" cy="572" r="3"/>
  </g>
  <path d="M256,206 L344,206 L330,250 L322,330 L278,330 L270,250 Z" fill="url(#cloth)"/>
  <path d="M288,206 L300,244 L312,206" stroke="#F2D98A" stroke-width="4" fill="none"/>
  <path d="M270,250 L330,250" stroke="#C9A24B" stroke-width="3"/>
  <path d="M278,330 L322,330" stroke="#C9A24B" stroke-width="3"/>
  <g fill="#F2D98A"><circle cx="300" cy="268" r="2.6"/><circle cx="300" cy="290" r="2.6"/><circle cx="300" cy="312" r="2.6"/></g>
  <path d="M256,210 L316,224 L304,486 Q276,500 248,486 L242,234 Z" fill="url(#cloth)" opacity="0.5"/>
  <path d="M256,212 L316,226" stroke="#F2D98A" stroke-width="2" opacity="0.5" fill="none"/>
  <path d="M248,470 Q276,486 304,470 L304,486 Q276,500 248,486 Z" fill="#C9A24B" opacity="0.75"/>
</svg>
